<svg width="64" height="64" viewBox="0 0 64 64" fill="none" xmlns="http://www.w3.org/2000/svg">
  <!-- Open box -->
  <rect x="10" y="22" width="44" height="30" rx="2" ry="2" stroke="black" stroke-width="2.5" fill="none"/>
  <path d="M10 26L20 14H44L54 26" stroke="black" stroke-width="2.5" fill="none" stroke-linejoin="round"/>
  <path d="M24 14L22 6" stroke="black" stroke-width="2.5" stroke-linecap="round"/>
  <path d="M40 14L42 6" stroke="black" stroke-width="2.5" stroke-linecap="round"/>

  <!-- Media items -->
  <rect x="24" y="18" width="16" height="12" rx="1.5" stroke="black" stroke-width="2.5" fill="none"/>
  <path d="M26 27L30 23L34 27" stroke="black" stroke-width="2.5" stroke-linecap="round" stroke-linejoin="round"/>
  <circle cx="36.5" cy="21.5" r="1.5" fill="black"/>

  <!-- Music note -->
  <path d="M18 20V13L24 14" stroke="black" stroke-width="2.5" stroke-linecap="round" stroke-linejoin="round"/>
  <circle cx="16" cy="21.5" r="2" stroke="black" stroke-width="2"/>

  <!-- Little gamepad-ish blob -->
  <path d="M44 11C47 11 50 13 51 16C52 19 50 22 47 23C44 24 41 23 40 20.5" stroke="black" stroke-width="2.5" stroke-linecap="round" stroke-linejoin="round" fill="none"/>
  <circle cx="47.5" cy="17" r="1.3" fill="black"/>
  <circle cx="45" cy="19.5" r="1.3" fill="black"/>

  <!-- Small motion lines -->
  <path d="M14 11L12 9" stroke="black" stroke-width="2" stroke-linecap="round"/>
  <path d="M28 8L30 6" stroke="black" stroke-width="2" stroke-linecap="round"/>
  <path d="M50 10L52 8" stroke="black" stroke-width="2" stroke-linecap="round"/>
</svg>

